<?xml version="1.0" encoding="UTF-8" standalone="no"?>
<!-- Created with Inkscape (http://www.inkscape.org/) -->

<svg
   xmlns:dc="http://purl.org/dc/elements/1.1/"
   xmlns:cc="http://creativecommons.org/ns#"
   xmlns:rdf="http://www.w3.org/1999/02/22-rdf-syntax-ns#"
   xmlns:svg="http://www.w3.org/2000/svg"
   xmlns="http://www.w3.org/2000/svg"
   xmlns:sodipodi="http://sodipodi.sourceforge.net/DTD/sodipodi-0.dtd"
   xmlns:inkscape="http://www.inkscape.org/namespaces/inkscape"
   width="38.629135mm"
   height="33.849487mm"
   viewBox="0 0 38.629136 33.849487"
   version="1.1"
   id="svg8"
   inkscape:version="0.92.4 5da689c313, 2019-01-14"
   sodipodi:docname="category.svg">
  <defs
     id="defs2" />
  <sodipodi:namedview
     id="base"
     pagecolor="#ffffff"
     bordercolor="#666666"
     borderopacity="1.0"
     inkscape:pageopacity="0.0"
     inkscape:pageshadow="2"
     inkscape:zoom="2.9813862"
     inkscape:cx="12.290231"
     inkscape:cy="26.199974"
     inkscape:document-units="mm"
     inkscape:current-layer="layer1"
     showgrid="false"
     fit-margin-top="0"
     fit-margin-left="0"
     fit-margin-right="0"
     fit-margin-bottom="0"
     inkscape:window-width="1920"
     inkscape:window-height="1040"
     inkscape:window-x="0"
     inkscape:window-y="0"
     inkscape:window-maximized="1" />
  <metadata
     id="metadata5">
    <rdf:RDF>
      <cc:Work
         rdf:about="">
        <dc:format>image/svg+xml</dc:format>
        <dc:type
           rdf:resource="http://purl.org/dc/dcmitype/StillImage" />
        <dc:title></dc:title>
      </cc:Work>
    </rdf:RDF>
  </metadata>
  <g
     inkscape:label="Calque 1"
     inkscape:groupmode="layer"
     id="layer1"
     transform="translate(-83.351474,-125.75533)">
    <path
       style="fill:#466c8042;stroke-width:0.26458335"
       d="m 89.093712,159.60409 c -2.212346,-0.01 -4.276754,-0.14105 -4.587575,-0.29155 -0.31082,-0.1505 -0.697774,-0.56477 -0.859896,-0.92059 -0.163903,-0.35973 -0.294767,-2.04545 -0.294767,-3.79704 0,-1.74513 0.131019,-3.43766 0.293759,-3.79484 0.161568,-0.35459 0.583889,-0.77692 0.938491,-0.93848 0.380388,-0.17332 2.261735,-0.29376 4.588583,-0.29376 2.326849,0 4.208196,0.12044 4.588583,0.29376 0.354603,0.16156 0.776924,0.58389 0.938491,0.93848 0.16274,0.35718 0.29376,2.04971 0.29376,3.79484 0,1.74512 -0.13102,3.43766 -0.29376,3.79483 -0.161567,0.3546 -0.583888,0.77693 -0.938491,0.93849 -0.388514,0.17702 -2.243257,0.28664 -4.667178,0.27586 z m 0.03262,-0.51126 h 4.369931 l 0.483854,-0.43789 0.483854,-0.43788 v -3.57618 -3.57618 l -0.437882,-0.48385 -0.437882,-0.48386 h -4.369931 -4.36993 l -0.483854,0.43789 -0.483855,0.43788 v 3.57618 3.57618 l 0.437883,0.48385 0.437882,0.48386 z m 13.461128,0.51126 c -2.21234,-0.01 -4.276755,-0.14105 -4.587575,-0.29155 -0.310821,-0.1505 -0.697774,-0.56477 -0.859896,-0.92059 -0.163904,-0.35973 -0.294768,-2.04545 -0.294768,-3.79704 0,-1.74513 0.13102,-3.43766 0.29376,-3.79484 0.161567,-0.35459 0.583888,-0.77692 0.938491,-0.93848 0.380388,-0.17332 2.261738,-0.29376 4.588588,-0.29376 2.32685,0 4.20819,0.12044 4.58858,0.29376 0.3546,0.16156 0.77692,0.58389 0.93849,0.93848 0.16274,0.35718 0.29376,2.04971 0.29376,3.79484 0,1.74512 -0.13102,3.43766 -0.29376,3.79483 -0.16157,0.3546 -0.58389,0.77693 -0.93849,0.93849 -0.38851,0.17702 -2.24326,0.28664 -4.66718,0.27586 z m 0.0326,-0.51126 h 4.36993 l 0.48385,-0.43789 0.48385,-0.43788 v -3.57618 -3.57618 l -0.43788,-0.48385 -0.43788,-0.48386 H 102.712 98.342067 l -0.483855,0.43789 -0.483854,0.43788 v 3.57618 3.57618 l 0.437882,0.48385 0.437882,0.48386 z m 13.46112,0.51126 c -2.21234,-0.01 -4.27675,-0.14105 -4.58757,-0.29155 -0.31082,-0.1505 -0.69777,-0.56477 -0.8599,-0.92059 -0.1639,-0.35973 -0.29476,-2.04545 -0.29476,-3.79704 0,-1.74513 0.13101,-3.43766 0.29375,-3.79484 0.16157,-0.35459 0.58389,-0.77692 0.93849,-0.93848 0.38039,-0.17332 2.26174,-0.29376 4.58859,-0.29376 2.32685,0 4.20819,0.12044 4.58858,0.29376 0.3546,0.16156 0.77693,0.58389 0.93849,0.93848 0.16274,0.35718 0.29376,2.04971 0.29376,3.79484 0,1.74512 -0.13102,3.43766 -0.29376,3.79483 -0.16156,0.3546 -0.58389,0.77693 -0.93849,0.93849 -0.38851,0.17702 -2.24326,0.28664 -4.66718,0.27586 z m 0.0326,-0.51126 h 4.36993 l 0.48385,-0.43789 0.48386,-0.43788 v -3.57618 -3.57618 l -0.43789,-0.48385 -0.43788,-0.48386 h -4.36993 -4.36993 l -0.48385,0.43789 -0.48386,0.43788 v 3.57618 3.57618 l 0.43788,0.48385 0.43789,0.48386 z M 89.093712,147.69784 c -2.212346,-0.01 -4.276754,-0.14105 -4.587575,-0.29155 -0.31082,-0.1505 -0.697774,-0.56477 -0.859896,-0.92059 -0.163903,-0.35972 -0.294767,-2.04545 -0.294767,-3.79704 0,-1.74513 0.131019,-3.43766 0.293759,-3.79483 0.161568,-0.35461 0.583889,-0.77693 0.938491,-0.93849 0.380388,-0.17332 2.261735,-0.29376 4.588583,-0.29376 2.326849,0 4.208196,0.12044 4.588583,0.29376 0.354603,0.16156 0.776924,0.58388 0.938491,0.93849 0.16274,0.35717 0.29376,2.0497 0.29376,3.79483 0,1.74512 -0.13102,3.43766 -0.29376,3.79483 -0.161567,0.3546 -0.583888,0.77693 -0.938491,0.93849 -0.388514,0.17702 -2.243257,0.28665 -4.667178,0.27586 z m 0.03262,-0.51126 h 4.369931 l 0.483854,-0.43789 0.483854,-0.43788 v -3.57618 -3.57618 l -0.437882,-0.48385 -0.437882,-0.48386 h -4.369931 -4.36993 l -0.483854,0.43789 -0.483855,0.43788 v 3.57618 3.57618 l 0.437883,0.48385 0.437882,0.48386 z m 13.461128,0.51126 c -2.21234,-0.01 -4.276755,-0.14105 -4.587575,-0.29155 -0.310821,-0.1505 -0.697774,-0.56477 -0.859896,-0.92059 -0.163904,-0.35972 -0.294768,-2.04545 -0.294768,-3.79704 0,-1.74513 0.13102,-3.43766 0.29376,-3.79483 0.161567,-0.35461 0.583888,-0.77693 0.938491,-0.93849 0.380388,-0.17332 2.261738,-0.29376 4.588588,-0.29376 2.32685,0 4.20819,0.12044 4.58858,0.29376 0.3546,0.16156 0.77692,0.58388 0.93849,0.93849 0.16274,0.35717 0.29376,2.0497 0.29376,3.79483 0,1.74512 -0.13102,3.43766 -0.29376,3.79483 -0.16157,0.3546 -0.58389,0.77693 -0.93849,0.93849 -0.38851,0.17702 -2.24326,0.28665 -4.66718,0.27586 z m 0.0326,-0.51126 h 4.36993 l 0.48385,-0.43789 0.48385,-0.43788 v -3.57618 -3.57618 l -0.43788,-0.48385 -0.43788,-0.48386 H 102.712 98.342067 l -0.483855,0.43789 -0.483854,0.43788 v 3.57618 3.57618 l 0.437882,0.48385 0.437882,0.48386 z m 13.46112,0.51126 c -2.21234,-0.01 -4.27675,-0.14105 -4.58757,-0.29155 -0.31082,-0.1505 -0.69777,-0.56477 -0.8599,-0.92059 -0.1639,-0.35972 -0.29476,-2.04545 -0.29476,-3.79704 0,-1.74513 0.13101,-3.43766 0.29375,-3.79483 0.16157,-0.35461 0.58389,-0.77693 0.93849,-0.93849 0.38039,-0.17332 2.26174,-0.29376 4.58859,-0.29376 2.32685,0 4.20819,0.12044 4.58858,0.29376 0.3546,0.16156 0.77693,0.58388 0.93849,0.93849 0.16274,0.35717 0.29376,2.0497 0.29376,3.79483 0,1.74512 -0.13102,3.43766 -0.29376,3.79483 -0.16156,0.3546 -0.58389,0.77693 -0.93849,0.93849 -0.38851,0.17702 -2.24326,0.28665 -4.66718,0.27586 z m 0.0326,-0.51126 h 4.36993 l 0.48385,-0.43789 0.48386,-0.43788 v -3.57618 -3.57618 l -0.43789,-0.48385 -0.43788,-0.48386 h -4.36993 -4.36993 l -0.48385,0.43789 -0.48386,0.43788 v 3.57618 3.57618 l 0.43788,0.48385 0.43789,0.48386 z M 89.093712,135.79159 c -2.212346,-0.01 -4.276754,-0.14105 -4.587575,-0.29155 -0.31082,-0.1505 -0.697774,-0.56477 -0.859896,-0.92059 -0.163903,-0.35972 -0.294767,-2.04545 -0.294767,-3.79704 0,-1.74513 0.131019,-3.43766 0.293759,-3.79483 0.161568,-0.35461 0.583889,-0.77693 0.938491,-0.93849 0.380388,-0.17332 2.261735,-0.29376 4.588583,-0.29376 2.326849,0 4.208196,0.12044 4.588583,0.29376 0.354603,0.16156 0.776924,0.58388 0.938491,0.93849 0.16274,0.35717 0.29376,2.0497 0.29376,3.79483 0,1.74512 -0.13102,3.43766 -0.29376,3.79483 -0.161567,0.3546 -0.583888,0.77693 -0.938491,0.93849 -0.388514,0.17702 -2.243257,0.28665 -4.667178,0.27586 z m 0.03262,-0.51126 h 4.369931 l 0.483854,-0.43789 0.483854,-0.43788 v -3.57618 -3.57618 l -0.437882,-0.48385 -0.437882,-0.48386 h -4.369931 -4.36993 l -0.483854,0.43789 -0.483855,0.43788 v 3.57618 3.57618 l 0.437883,0.48385 0.437882,0.48386 z m 13.461128,0.51126 c -2.21234,-0.01 -4.276755,-0.14105 -4.587575,-0.29155 -0.310821,-0.1505 -0.697774,-0.56477 -0.859896,-0.92059 -0.163904,-0.35972 -0.294768,-2.04545 -0.294768,-3.79704 0,-1.74513 0.13102,-3.43766 0.29376,-3.79483 0.161567,-0.35461 0.583888,-0.77693 0.938491,-0.93849 0.380388,-0.17332 2.261738,-0.29376 4.588588,-0.29376 2.32685,0 4.20819,0.12044 4.58858,0.29376 0.3546,0.16156 0.77692,0.58388 0.93849,0.93849 0.16274,0.35717 0.29376,2.0497 0.29376,3.79483 0,1.74512 -0.13102,3.43766 -0.29376,3.79483 -0.16157,0.3546 -0.58389,0.77693 -0.93849,0.93849 -0.38851,0.17702 -2.24326,0.28665 -4.66718,0.27586 z m 0.0326,-0.51126 h 4.36993 l 0.48385,-0.43789 0.48385,-0.43788 v -3.57618 -3.57618 l -0.43788,-0.48385 -0.43788,-0.48386 H 102.712 98.342067 l -0.483855,0.43789 -0.483854,0.43788 v 3.57618 3.57618 l 0.437882,0.48385 0.437882,0.48386 z m 13.46112,0.51126 c -2.21234,-0.01 -4.27675,-0.14105 -4.58757,-0.29155 -0.31082,-0.1505 -0.69777,-0.56477 -0.8599,-0.92059 -0.1639,-0.35972 -0.29476,-2.04545 -0.29476,-3.79704 0,-1.74513 0.13101,-3.43766 0.29375,-3.79483 0.16157,-0.35461 0.58389,-0.77693 0.93849,-0.93849 0.38039,-0.17332 2.26174,-0.29376 4.58859,-0.29376 2.32685,0 4.20819,0.12044 4.58858,0.29376 0.3546,0.16156 0.77693,0.58388 0.93849,0.93849 0.16274,0.35717 0.29376,2.0497 0.29376,3.79483 0,1.74512 -0.13102,3.43766 -0.29376,3.79483 -0.16156,0.3546 -0.58389,0.77693 -0.93849,0.93849 -0.38851,0.17702 -2.24326,0.28665 -4.66718,0.27586 z m 0.0326,-0.51126 h 4.36993 l 0.48385,-0.43789 0.48386,-0.43788 v -3.57618 -3.57618 l -0.43789,-0.48385 -0.43788,-0.48386 h -4.36993 -4.36993 l -0.48385,0.43789 -0.48386,0.43788 v 3.57618 3.57618 l 0.43788,0.48385 0.43789,0.48386 z"
       id="path3788"
       inkscape:connector-curvature="0" />
  </g>
</svg>
