<?xml version="1.0" encoding="UTF-8" standalone="no"?>
<!-- Created with Inkscape (http://www.inkscape.org/) -->

<svg
   xmlns:dc="http://purl.org/dc/elements/1.1/"
   xmlns:cc="http://creativecommons.org/ns#"
   xmlns:rdf="http://www.w3.org/1999/02/22-rdf-syntax-ns#"
   xmlns:svg="http://www.w3.org/2000/svg"
   xmlns="http://www.w3.org/2000/svg"
   xmlns:sodipodi="http://sodipodi.sourceforge.net/DTD/sodipodi-0.dtd"
   xmlns:inkscape="http://www.inkscape.org/namespaces/inkscape"
   width="38.293499mm"
   height="38.408962mm"
   viewBox="0 0 38.293499 38.408962"
   version="1.1"
   id="svg8"
   inkscape:version="0.92.4 5da689c313, 2019-01-14"
   sodipodi:docname="cookie.svg">
  <defs
     id="defs2" />
  <sodipodi:namedview
     id="base"
     pagecolor="#ffffff"
     bordercolor="#666666"
     borderopacity="1.0"
     inkscape:pageopacity="0.0"
     inkscape:pageshadow="2"
     inkscape:zoom="2.9813862"
     inkscape:cx="48.299922"
     inkscape:cy="33.201915"
     inkscape:document-units="mm"
     inkscape:current-layer="layer1"
     showgrid="false"
     fit-margin-top="0"
     fit-margin-left="0"
     fit-margin-right="0"
     fit-margin-bottom="0"
     inkscape:window-width="1920"
     inkscape:window-height="1040"
     inkscape:window-x="0"
     inkscape:window-y="0"
     inkscape:window-maximized="1" />
  <metadata
     id="metadata5">
    <rdf:RDF>
      <cc:Work
         rdf:about="">
        <dc:format>image/svg+xml</dc:format>
        <dc:type
           rdf:resource="http://purl.org/dc/dcmitype/StillImage" />
        <dc:title></dc:title>
      </cc:Work>
    </rdf:RDF>
  </metadata>
  <g
     inkscape:label="Calque 1"
     inkscape:groupmode="layer"
     id="layer1"
     transform="translate(-73.82391,-123.04845)">
    <path
       style="fill:#466c8042;stroke-width:0.26458332"
       d="m 95.082424,161.43679 c -0.915157,0.0849 -2.797129,-0.0953 -5.071117,-0.48568 -1.988749,-0.34137 -4.250937,-0.82762 -5.027083,-1.08054 l -1.411175,-0.45987 -3.865572,-3.86822 -3.865573,-3.86822 -0.433985,-1.30413 c -0.238691,-0.71728 -0.614765,-2.34608 -0.835719,-3.61957 -0.220954,-1.27349 -0.509564,-3.17419 -0.641355,-4.22379 -0.140427,-1.11836 -0.142774,-2.52247 -0.0057,-3.39189 0.152002,-0.96388 0.897776,-2.82162 2.129046,-5.30351 1.456697,-2.93629 2.212748,-4.13763 3.268239,-5.19312 1.054373,-1.05437 2.259938,-1.81361 5.193116,-3.27049 2.893537,-1.4372 4.261744,-1.96477 5.641533,-2.17531 1.236705,-0.18872 2.010594,-0.19183 2.410316,-0.01 0.450091,0.20508 0.629865,0.57816 0.763304,1.58407 0.096,0.7237 0.479169,1.89471 0.851483,2.60226 0.372314,0.70754 1.173657,1.79798 1.780761,2.4232 0.607104,0.62522 1.699138,1.42681 2.426742,1.78132 0.727604,0.3545 1.976325,0.73736 2.774945,0.8508 l 1.45202,0.20624 0.20436,1.42007 c 0.11241,0.78104 0.43065,1.93162 0.70722,2.55684 0.27656,0.62522 1,1.67611 1.60764,2.33532 0.60764,0.65921 1.63671,1.51029 2.28684,1.89129 0.65012,0.38099 1.91364,0.84195 2.80781,1.02435 l 1.62578,0.33162 0.19423,0.72627 c 0.10682,0.39944 0.0831,1.46181 -0.0527,2.36081 -0.17461,1.15588 -0.79875,2.75322 -2.13129,5.45453 -1.44939,2.93818 -2.19754,4.13252 -3.24103,5.17397 -0.98816,0.98622 -2.29092,1.82596 -4.79624,3.09158 -1.891773,0.95566 -3.856304,1.86514 -4.365627,2.02104 -0.509323,0.15591 -1.580885,0.34422 -2.38125,0.41847 z m -0.737529,-0.40075 c 1.228304,0.0214 2.248247,-0.14435 3.307292,-0.53744 0.842203,-0.3126 2.899843,-1.29107 4.572523,-2.17439 1.68552,-0.89009 3.51865,-2.08342 4.11219,-2.67696 0.58902,-0.58902 1.79891,-2.43829 2.68863,-4.10947 0.88973,-1.67119 1.87274,-3.796 2.18447,-4.72182 0.36465,-1.08298 0.53862,-2.16719 0.48783,-3.04019 l -0.0789,-1.3569 -1.3978,-0.20003 c -0.76879,-0.11002 -1.88196,-0.44703 -2.4737,-0.74892 -0.59174,-0.30188 -1.61304,-1.044 -2.26956,-1.64916 -0.65651,-0.60515 -1.53643,-1.69802 -1.95537,-2.4286 -0.41894,-0.73057 -0.83884,-1.90175 -0.93311,-2.6026 -0.0943,-0.70085 -0.32573,-1.42861 -0.51436,-1.61724 -0.18862,-0.18862 -0.91638,-0.42008 -1.61723,-0.51435 -0.700858,-0.0943 -1.872028,-0.51417 -2.602606,-0.93311 -0.730577,-0.41895 -1.823447,-1.29886 -2.4286,-1.95538 -0.605153,-0.65651 -1.347274,-1.67781 -1.649159,-2.26955 -0.301884,-0.59175 -0.638897,-1.70491 -0.748917,-2.4737 l -0.200035,-1.39781 -1.406819,-0.0807 c -0.816096,-0.0468 -1.981573,0.10576 -2.775608,0.36333 -0.752835,0.2442 -2.853104,1.22591 -4.667267,2.18156 -1.907261,1.0047 -3.752127,2.19121 -4.374052,2.81314 -0.598577,0.59858 -1.787819,2.42431 -2.681596,4.11682 -0.883311,1.67268 -1.861784,3.73032 -2.174385,4.57252 -0.336441,0.90643 -0.568344,2.14803 -0.568313,3.04271 2.8e-5,0.83128 0.235486,2.94018 0.523239,4.68643 0.287752,1.74625 0.639483,3.57198 0.781623,4.05719 0.142139,0.4852 0.551499,1.37817 0.909687,1.98437 0.358188,0.6062 2.060262,2.48618 3.782387,4.17772 1.722125,1.69155 3.6175,3.32105 4.211944,3.62112 0.594444,0.30007 2.023194,0.73247 3.175,0.96088 1.151806,0.22842 2.749037,0.51976 3.549401,0.64743 0.800365,0.12768 2.254414,0.24605 3.231221,0.26307 z m -7.332262,-10.28782 c -0.715732,0 -1.167559,-0.20082 -1.740145,-0.7734 -0.572585,-0.57259 -0.773397,-1.02441 -0.773397,-1.74015 0,-0.71573 0.200812,-1.16756 0.773397,-1.74014 0.572586,-0.57259 1.024413,-0.7734 1.740145,-0.7734 0.715731,0 1.167559,0.20081 1.740144,0.7734 0.572585,0.57258 0.773397,1.02441 0.773397,1.74014 0,0.71574 -0.200812,1.16756 -0.773397,1.74015 -0.572585,0.57258 -1.024413,0.7734 -1.740144,0.7734 z m 0,-0.26459 c 0.423297,0 1.00932,-0.30716 1.475561,-0.7734 0.46624,-0.46624 0.773397,-1.05226 0.773397,-1.47556 0,-0.4233 -0.307157,-1.00932 -0.773397,-1.47556 -0.466241,-0.46624 -1.052264,-0.77339 -1.475561,-0.77339 -0.423298,0 -1.00932,0.30715 -1.475561,0.77339 -0.466241,0.46624 -0.773398,1.05226 -0.773398,1.47556 0,0.4233 0.307157,1.00932 0.773398,1.47556 0.466241,0.46624 1.052263,0.7734 1.475561,0.7734 z m 14.287497,-2.11666 c -0.71573,0 -1.16756,-0.20082 -1.740141,-0.7734 -0.572587,-0.57259 -0.773398,-1.02441 -0.773398,-1.74015 0,-0.71573 0.200811,-1.16755 0.773398,-1.74014 0.572581,-0.57259 1.024411,-0.7734 1.740141,-0.7734 0.71573,0 1.16756,0.20081 1.74015,0.7734 0.57258,0.57259 0.77339,1.02441 0.77339,1.74014 0,0.71574 -0.20081,1.16756 -0.77339,1.74015 -0.57259,0.57258 -1.02442,0.7734 -1.74015,0.7734 z m 0,-0.26459 c 0.4233,0 1.00932,-0.30716 1.47556,-0.7734 0.46624,-0.46624 0.7734,-1.05226 0.7734,-1.47556 0,-0.42329 -0.30716,-1.00932 -0.7734,-1.47556 -0.46624,-0.46624 -1.05226,-0.77339 -1.47556,-0.77339 -0.4233,0 -1.00932,0.30715 -1.475557,0.77339 -0.466241,0.46624 -0.773399,1.05227 -0.773399,1.47556 0,0.4233 0.307158,1.00932 0.773399,1.47556 0.466237,0.46624 1.052257,0.7734 1.475557,0.7734 z m -11.906247,-9.26041 c -0.715732,0 -1.167559,-0.20082 -1.740145,-0.7734 -0.572585,-0.57259 -0.773397,-1.02441 -0.773397,-1.74015 0,-0.71573 0.200812,-1.16755 0.773397,-1.74014 0.572586,-0.57259 1.024413,-0.7734 1.740145,-0.7734 0.715731,0 1.167559,0.20081 1.740144,0.7734 0.572585,0.57259 0.773397,1.02441 0.773397,1.74014 0,0.71574 -0.200812,1.16756 -0.773397,1.74015 -0.572585,0.57258 -1.024413,0.7734 -1.740144,0.7734 z m 0,-0.26459 c 0.423297,0 1.00932,-0.30715 1.475561,-0.77339 0.46624,-0.46625 0.773397,-1.05227 0.773397,-1.47557 0,-0.42329 -0.307157,-1.00932 -0.773397,-1.47556 -0.466241,-0.46624 -1.052264,-0.77339 -1.475561,-0.77339 -0.423298,0 -1.00932,0.30715 -1.475561,0.77339 -0.466241,0.46624 -0.773398,1.05227 -0.773398,1.47556 0,0.4233 0.307157,1.00932 0.773398,1.47557 0.466241,0.46624 1.052263,0.77339 1.475561,0.77339 z"
       id="path3756"
       inkscape:connector-curvature="0" />
  </g>
</svg>
