<?xml version="1.0" encoding="UTF-8" standalone="no"?>
<svg
   xmlns:dc="http://purl.org/dc/elements/1.1/"
   xmlns:cc="http://creativecommons.org/ns#"
   xmlns:rdf="http://www.w3.org/1999/02/22-rdf-syntax-ns#"
   xmlns:svg="http://www.w3.org/2000/svg"
   xmlns="http://www.w3.org/2000/svg"
   xmlns:sodipodi="http://sodipodi.sourceforge.net/DTD/sodipodi-0.dtd"
   xmlns:inkscape="http://www.inkscape.org/namespaces/inkscape"
   sodipodi:docname="inventory.svg"
   inkscape:version="1.0 (4035a4fb49, 2020-05-01)"
   id="svg8"
   version="1.1"
   viewBox="0 0 188.41444 215.15179"
   height="215.15179mm"
   width="188.41444mm">
  <defs
     id="defs2" />
  <sodipodi:namedview
     inkscape:window-maximized="1"
     inkscape:window-y="34"
     inkscape:window-x="0"
     inkscape:window-height="1009"
     inkscape:window-width="1920"
     fit-margin-bottom="0"
     fit-margin-right="0"
     fit-margin-left="0"
     fit-margin-top="0"
     showgrid="false"
     inkscape:document-rotation="0"
     inkscape:current-layer="layer1"
     inkscape:document-units="mm"
     inkscape:cy="608.49421"
     inkscape:cx="444.84478"
     inkscape:zoom="0.60738301"
     inkscape:pageshadow="2"
     inkscape:pageopacity="0.0"
     borderopacity="1.0"
     bordercolor="#666666"
     pagecolor="#ffffff"
     id="base" />
  <metadata
     id="metadata5">
    <rdf:RDF>
      <cc:Work
         rdf:about="">
        <dc:format>image/svg+xml</dc:format>
        <dc:type
           rdf:resource="http://purl.org/dc/dcmitype/StillImage" />
        <dc:title></dc:title>
      </cc:Work>
    </rdf:RDF>
  </metadata>
  <g
     transform="translate(-10.242525,-12.837797)"
     id="layer1"
     inkscape:groupmode="layer"
     inkscape:label="Calque 1">
    <path
       id="path863"
       d="M 95.660856,227.79264 C 49.170235,225.96695 17.467608,213.55598 11.316779,194.77357 l -1.068589,-3.26308 v -71.39622 c 0,-79.747838 -0.275178,-72.540255 3.01013,-78.842454 11.888215,-22.805128 75.081015,-34.7916097 131.74963,-24.990401 30.39382,5.256809 49.23091,16.400042 52.98141,31.341602 0.86122,3.430975 0.90325,141.742843 0.0442,145.393153 -5.17881,22.00569 -48.94845,36.87445 -102.372714,34.77647 z m 34.154374,-1.86731 c 40.23113,-4.8648 63.09084,-15.94064 67.45113,-32.68098 0.98593,-3.7852 1.00912,-141.901459 0.0245,-145.601467 C 191.90251,27.39513 157.90717,14.409161 108.14431,13.589548 58.55887,12.772847 20.662611,25.021977 12.337599,44.55691 l -1.213315,2.847103 -0.116231,71.396217 c -0.08215,50.46329 0.02445,72.07611 0.363581,73.71514 2.099739,10.14799 12.188528,19.03322 28.442545,25.04945 12.414153,4.59495 26.378353,7.30958 47.305476,9.1962 8.068688,0.72741 33.960085,0.22063 42.695645,-0.83569 z M 90.623699,214.04104 c -34.329881,-2.11122 -59.006407,-10.15428 -65.608251,-21.38433 -1.188834,-2.02225 -1.188834,-2.02225 -1.226205,-12.53458 l -0.03736,-10.51233 0.256378,10.07432 c 0.23917,9.39809 0.323803,10.20058 1.26088,11.9556 12.670149,23.72947 104.216559,30.40936 145.292059,10.60159 12.16868,-5.8681 13.92443,-8.64579 14.25801,-22.55719 l 0.24158,-10.07432 0.0536,9.85532 c 0.0358,6.58671 -0.11688,10.31786 -0.46059,11.24996 -5.68248,15.41274 -48.7957,26.1078 -94.030098,23.32596 z m 1.673564,-26.7201 C 64.262775,186.04736 35.895582,179.11667 25.172631,170.921 c -1.857843,-1.41998 -0.271478,-0.86897 3.108628,1.07974 34.697835,20.00409 118.515091,19.98891 152.168611,-0.0276 1.98684,-1.18175 3.71401,-2.04707 3.83814,-1.92296 0.39684,0.39685 -1.33172,1.45944 -6.7186,4.1301 -20.17024,9.99984 -50.73344,14.70969 -85.272147,13.14064 z m -0.359522,-13.3987 c -31.701809,-2.14975 -53.104094,-7.99799 -63.269458,-17.28856 -4.741225,-4.33321 -4.835848,-4.65919 -4.87904,-16.80879 l -0.03736,-10.51233 0.256378,10.0743 c 0.23917,9.3981 0.323803,10.2006 1.26088,11.95561 12.690386,23.76737 104.150949,30.441 145.292059,10.60158 12.16868,-5.8681 13.92443,-8.64579 14.25801,-22.55719 l 0.24158,-10.0743 0.0536,9.8553 c 0.0581,10.67807 -0.0483,11.33482 -2.36802,14.61438 -9.32404,13.18231 -52.42981,22.74252 -90.808625,20.14 z m 1.314041,-26.72333 c -27.745977,-1.19299 -57.399713,-8.41274 -68.079151,-16.57517 -1.857843,-1.41996 -0.271478,-0.86897 3.108628,1.07975 34.719844,20.01678 118.493731,20.0016 152.168611,-0.0276 3.3161,-1.97237 5.23214,-2.59602 3.21977,-1.04803 -13.8556,10.65833 -54.53579,18.11385 -90.417858,16.57104 z m -1.971061,-13.56406 c -34.7088,-2.21373 -59.667336,-10.34999 -66.286445,-21.60876 -1.167662,-1.98614 -1.167662,-1.98614 -1.205033,-12.498461 l -0.03736,-10.512332 0.261529,10.074322 c 0.329703,12.700451 0.852905,13.983681 7.675131,18.824201 28.895555,20.50205 115.175547,20.61621 145.276527,0.19222 6.73791,-4.57179 7.55136,-6.53764 7.86894,-19.016421 l 0.25638,-10.074322 -0.0374,10.512332 c -0.0432,12.149611 -0.13774,12.475601 -4.87905,16.808811 -13.00355,11.88451 -52.69023,19.60744 -88.893248,17.29841 z m 1.971061,-26.7332 c -24.02728,-1.03309 -43.870963,-4.9841 -59.281997,-11.80344 -4.88019,-2.15948 -9.48615,-4.830274 -9.48615,-5.500612 0,-0.247131 0.640596,-0.02748 1.423544,0.488086 33.083309,21.785166 121.710341,21.929926 156.589891,0.255739 1.02385,-0.636219 1.86155,-0.965743 1.86155,-0.73227 0,0.577069 -5.97428,3.969223 -10.41651,5.914417 -19.22771,8.41961 -49.66779,12.71195 -80.690328,11.37808 z M 89.309658,93.312174 C 56.943864,91.428381 30.271759,82.286878 24.737437,71.180944 23.204341,68.104424 23.005805,52.276038 24.460133,49.072708 38.76908,17.555559 180.25641,19.894626 185.03001,51.727245 c 0.61738,4.117008 0.0381,17.919362 -0.81804,19.489093 -8.15299,14.949506 -50.05732,24.705972 -94.902312,22.095836 z M 119.3136,92.729327 c 34.1739,-2.471754 58.23753,-10.713104 64.27581,-22.013276 1.63153,-3.053277 1.5056,-18.397451 -0.17695,-21.559989 C 173.80301,31.094013 115.1439,21.395307 67.016291,29.911086 43.452562,34.08049 27.119636,42.063635 24.540421,50.672304 c -0.766749,2.55918 -0.643541,16.00145 0.17183,18.747105 3.492971,11.762119 31.045149,21.350619 67.444496,23.47151 5.684704,0.33123 21.657233,0.236188 27.156853,-0.161575 z"
       style="fill:#466c8042;stroke-width:0.438013" />
    <path
       d=""
       id="path855"
       style="fill:#466c8042;stroke-width:0.264583" />
  </g>
</svg>
