<?xml version="1.0" encoding="UTF-8" standalone="no"?>
<!-- Created with Inkscape (http://www.inkscape.org/) -->

<svg
   xmlns:dc="http://purl.org/dc/elements/1.1/"
   xmlns:cc="http://creativecommons.org/ns#"
   xmlns:rdf="http://www.w3.org/1999/02/22-rdf-syntax-ns#"
   xmlns:svg="http://www.w3.org/2000/svg"
   xmlns="http://www.w3.org/2000/svg"
   xmlns:sodipodi="http://sodipodi.sourceforge.net/DTD/sodipodi-0.dtd"
   xmlns:inkscape="http://www.inkscape.org/namespaces/inkscape"
   width="38.594906mm"
   height="33.825562mm"
   viewBox="0 0 38.594906 33.825561"
   version="1.1"
   id="svg8"
   inkscape:version="0.92.4 5da689c313, 2019-01-14"
   sodipodi:docname="dessin.svg">
  <defs
     id="defs2" />
  <sodipodi:namedview
     id="base"
     pagecolor="#ffffff"
     bordercolor="#666666"
     borderopacity="1.0"
     inkscape:pageopacity="0.0"
     inkscape:pageshadow="2"
     inkscape:zoom="3.959798"
     inkscape:cx="61.724839"
     inkscape:cy="56.901632"
     inkscape:document-units="mm"
     inkscape:current-layer="layer1"
     showgrid="false"
     fit-margin-top="0"
     fit-margin-left="0"
     fit-margin-right="0"
     fit-margin-bottom="0"
     inkscape:window-width="1920"
     inkscape:window-height="1040"
     inkscape:window-x="0"
     inkscape:window-y="0"
     inkscape:window-maximized="1" />
  <metadata
     id="metadata5">
    <rdf:RDF>
      <cc:Work
         rdf:about="">
        <dc:format>image/svg+xml</dc:format>
        <dc:type
           rdf:resource="http://purl.org/dc/dcmitype/StillImage" />
        <dc:title></dc:title>
      </cc:Work>
    </rdf:RDF>
  </metadata>
  <g
     inkscape:label="Calque 1"
     inkscape:groupmode="layer"
     id="layer1"
     transform="translate(-65.972881,-123.60742)">
    <path
       style="fill:#466c8042;stroke-width:0.26458332"
       d="m 68.482575,157.03656 c -2.52704,-0.90589 -2.54588,-1.03727 -2.45655,-17.13027 0.10234,-18.43539 -2.54195,-16.20963 19.25759,-16.20963 21.840625,0 19.182285,-2.32834 19.182285,16.80105 0,15.7623 0.0675,15.15835 -1.8218,16.30215 -1.11941,0.67771 -32.328085,0.89394 -34.161525,0.2367 z m 34.589285,-1.13196 c 1.36311,-1.3633 1.36311,-29.45049 0,-30.81378 -1.49996,-1.50016 -34.044575,-1.47196 -35.547325,0.0308 -1.35043,1.35044 -1.56189,29.16744 -0.23259,30.59741 1.07738,1.15897 1.05295,1.1575 18.31742,1.10298 16.597625,-0.0524 16.597625,-0.0524 17.462495,-0.9174 z m -33.276595,-2.50632 c -0.0701,-0.18308 -0.0966,-6.1074 -0.0587,-13.16516 0.0689,-12.83229 0.0689,-12.83229 15.54701,-12.83229 15.478115,0 15.478115,0 15.478115,13.09688 0,13.09687 0,13.09687 -15.419455,13.16515 -12.19472,0.054 -15.44614,-0.001 -15.54701,-0.26458 z m 30.701885,-12.90057 c 0,-12.8323 0,-12.8323 -15.213535,-12.8323 -15.21354,0 -15.21354,0 -15.28246,12.56771 -0.0379,6.91224 -0.0115,12.71752 0.0587,12.90061 0.10089,0.26323 3.29946,0.3186 15.28246,0.26458 15.154865,-0.0683 15.154865,-0.0683 15.154865,-12.9006 z m -26.061455,9.60152 c -2.15771,-1.10304 -1.90924,-4.27761 0.39688,-5.0707 1.49765,-0.51506 2.89317,0.0738 3.47497,1.46621 1.05847,2.53326 -1.432,4.85176 -3.87185,3.60449 z m 3.05474,-0.72596 c 1.53596,-1.53596 0.45086,-4.11306 -1.73182,-4.11306 -1.48938,0 -2.38125,0.89187 -2.38125,2.38125 0,0.79642 0.17158,1.25396 0.64943,1.73181 0.47785,0.47786 0.93539,0.64944 1.73182,0.64944 0.79642,0 1.25396,-0.17158 1.73182,-0.64944 z m 3.03999,-0.3915 c -0.15064,-0.28148 -0.2739,-0.88462 -0.2739,-1.34031 0,-1.93303 -0.37579,-1.85209 8.59896,-1.85209 8.97475,0 8.59896,-0.0809 8.59896,1.85209 0,1.93302 0.37579,1.85208 -8.59896,1.85208 -7.68917,0 -8.06349,-0.023 -8.32506,-0.51177 z m 16.26256,-1.34031 c 0,-2.06658 -15.80979,-2.36425 -15.95784,-0.30047 -0.14543,2.02735 -0.69213,1.90381 8.0797,1.82577 7.87814,-0.0701 7.87814,-0.0701 7.87814,-1.5253 z m -22.35729,-4.68598 c -2.15771,-1.10304 -1.90924,-4.27761 0.39688,-5.0707 1.49765,-0.51506 2.89317,0.0738 3.47497,1.4662 1.05847,2.53327 -1.432,4.85177 -3.87185,3.6045 z m 3.05474,-0.72596 c 1.53596,-1.53596 0.45086,-4.11306 -1.73182,-4.11306 -1.48938,0 -2.38125,0.89187 -2.38125,2.38125 0,0.79642 0.17158,1.25396 0.64943,1.73181 0.47785,0.47786 0.93539,0.64944 1.73182,0.64944 0.79642,0 1.25396,-0.17158 1.73182,-0.64944 z m 3.03999,-0.3915 c -0.15064,-0.28148 -0.2739,-0.88462 -0.2739,-1.34031 0,-1.93303 -0.37579,-1.85209 8.59896,-1.85209 8.97475,0 8.59896,-0.0809 8.59896,1.85209 0,1.93302 0.37579,1.85208 -8.59896,1.85208 -7.68917,0 -8.06349,-0.023 -8.32506,-0.51177 z m 16.26256,-1.34031 c 0,-2.06658 -15.80979,-2.36425 -15.95784,-0.30046 -0.14543,2.02734 -0.69213,1.9038 8.0797,1.82576 7.87814,-0.0701 7.87814,-0.0701 7.87814,-1.5253 z m -22.35729,-4.68598 c -2.15771,-1.10304 -1.90924,-4.27761 0.39688,-5.0707 1.49765,-0.51506 2.89317,0.0738 3.47497,1.4662 1.05847,2.53327 -1.432,4.85177 -3.87185,3.6045 z m 3.05474,-0.72596 c 1.53596,-1.53596 0.45086,-4.11306 -1.73182,-4.11306 -1.48938,0 -2.38125,0.89187 -2.38125,2.38125 0,1.48937 0.89187,2.38125 2.38125,2.38125 0.79642,0 1.25396,-0.17158 1.73182,-0.64944 z m 3.03999,-0.3915 c -0.15064,-0.28148 -0.2739,-0.88462 -0.2739,-1.34031 0,-1.93303 -0.37579,-1.85209 8.59896,-1.85209 8.97475,0 8.59896,-0.0809 8.59896,1.85209 0,1.93302 0.37579,1.85208 -8.59896,1.85208 -7.68917,0 -8.06349,-0.023 -8.32506,-0.51177 z m 16.26256,-1.34031 c 0,-2.06658 -15.80979,-2.36425 -15.95784,-0.30046 -0.14543,2.02734 -0.69213,1.9038 8.0797,1.82576 7.87814,-0.0701 7.87814,-0.0701 7.87814,-1.5253 z"
       id="path3724"
       inkscape:connector-curvature="0" />
  </g>
</svg>
