<?xml version="1.0" encoding="UTF-8" standalone="no"?>
<!-- Created with Inkscape (http://www.inkscape.org/) -->

<svg
   xmlns:dc="http://purl.org/dc/elements/1.1/"
   xmlns:cc="http://creativecommons.org/ns#"
   xmlns:rdf="http://www.w3.org/1999/02/22-rdf-syntax-ns#"
   xmlns:svg="http://www.w3.org/2000/svg"
   xmlns="http://www.w3.org/2000/svg"
   xmlns:sodipodi="http://sodipodi.sourceforge.net/DTD/sodipodi-0.dtd"
   xmlns:inkscape="http://www.inkscape.org/namespaces/inkscape"
   version="1.1"
   id="svg64"
   width="140.07176"
   height="151.33688"
   viewBox="0 0 140.07176 151.33688"
   sodipodi:docname="recipe.svg"
   inkscape:version="0.92.4 5da689c313, 2019-01-14">
  <metadata
     id="metadata70">
    <rdf:RDF>
      <cc:Work
         rdf:about="">
        <dc:format>image/svg+xml</dc:format>
        <dc:type
           rdf:resource="http://purl.org/dc/dcmitype/StillImage" />
        <dc:title></dc:title>
      </cc:Work>
    </rdf:RDF>
  </metadata>
  <defs
     id="defs68" />
  <sodipodi:namedview
     pagecolor="#ffffff"
     bordercolor="#666666"
     borderopacity="1"
     objecttolerance="10"
     gridtolerance="10"
     guidetolerance="10"
     inkscape:pageopacity="0"
     inkscape:pageshadow="2"
     inkscape:window-width="1920"
     inkscape:window-height="1040"
     id="namedview66"
     showgrid="false"
     inkscape:zoom="3.0805638"
     inkscape:cx="82.578338"
     inkscape:cy="54.001884"
     inkscape:window-x="0"
     inkscape:window-y="0"
     inkscape:window-maximized="1"
     inkscape:current-layer="svg64"
     fit-margin-top="0"
     fit-margin-left="0"
     fit-margin-right="0"
     fit-margin-bottom="0" />
  <path
     style="fill:#466c8042;stroke-width:0.88932645"
     d="M 13.874375,150.80466 C 6.6640584,149.39873 1.3524274,144.26961 0.38401539,137.77783 c -0.340555,-2.28292 -0.481283,-27.50091 -0.312728,-56.039984 0.345675,-58.528208 -0.01599,-55.830507 8.06292201,-60.142988 3.8644806,-2.06284 4.4712576,-2.131284 21.0475226,-2.374176 L 46.250059,18.970583 46.926638,16.06463 C 48.602082,8.8684902 54.887924,3.1943282 63.455449,1.1442502 c 6.375955,-1.52566695 7.162658,-1.52566695 13.538612,0 8.567525,2.050078 14.853368,7.72424 16.528808,14.9203798 l 0.67658,2.905953 17.068331,0.250099 c 16.57627,0.242892 17.18304,0.311336 21.04752,2.374176 2.18856,1.168241 4.82908,3.503257 5.86783,5.188921 1.80228,2.924724 1.88863,5.564952 1.88863,57.748107 0,30.075784 -0.33425,55.643454 -0.74277,56.817034 -0.98581,2.83203 -5.19357,6.77775 -9.03494,8.4723 -2.81316,1.24098 -8.21995,1.3808 -58.08782,1.5021 -30.242266,0.0736 -56.491601,-0.15984 -58.331855,-0.51866 z m 117.395255,-2.8576 c 1.5044,-0.90525 3.65449,-2.63777 4.77796,-3.85004 2.01104,-2.16996 2.04685,-3.06465 2.3103,-57.741484 0.26113,-54.193356 0.21953,-55.616709 -1.7191,-58.816171 -1.09268,-1.803345 -3.63106,-4.17689 -5.64085,-5.274547 -3.48889,-1.905478 -4.42418,-2.00767 -20.67991,-2.259529 l -17.025761,-0.26379 -1.57989,-4.525985 C 88.744849,6.7143112 80.584641,1.5091302 70.224755,1.5091302 c -10.359886,0 -18.520095,5.205181 -21.487623,13.7063838 l -1.579892,4.525985 -17.025757,0.26379 c -16.255729,0.251859 -17.191024,0.354051 -20.6799136,2.259529 -2.009788,1.097657 -4.539208,3.456282 -5.620935,5.241389 -1.903207,3.140744 -1.966776,5.003286 -1.966776,57.624889 0,36.580084 0.345885,55.114814 1.056732,56.626524 0.581204,1.23602 2.030158,3.10137 3.219898,4.14524 4.6769316,4.1035 3.9410126,4.05987 65.2507306,3.86848 55.992691,-0.17477 57.198211,-0.2115 59.878411,-1.82428 z M 18.820271,136.13251 c -0.81221,-0.78856 -1.04946,-14.97633 -0.864364,-51.689654 l 0.255122,-50.602751 9.164323,-0.229531 9.164323,-0.229531 v 5.561006 c 0,3.991065 0.439525,5.915155 1.556874,6.81547 1.348067,1.086217 5.657068,1.254464 32.128206,1.254464 26.471134,0 30.780135,-0.168247 32.128205,-1.254464 1.11736,-0.900315 1.55688,-2.824405 1.55688,-6.81547 v -5.561006 l 9.16432,0.229531 9.16432,0.229531 0.25513,50.602751 c 0.18509,36.713324 -0.0521,50.901094 -0.86437,51.689654 -0.91758,0.89086 -10.18867,1.08688 -51.404485,1.08688 -41.215815,0 -50.486904,-0.19602 -51.404484,-1.08688 z m 101.818349,-0.7984 c 0.81204,-0.7884 1.04948,-14.76839 0.86436,-50.891364 l -0.25524,-49.804346 -7.56417,-0.231499 -7.56418,-0.2315 -0.38724,5.522078 c -0.21299,3.037142 -0.98764,6.10499 -1.72146,6.817438 -1.18109,1.146706 -5.058371,1.295361 -33.785935,1.295361 -28.72757,0 -32.604835,-0.148655 -33.785934,-1.295361 -0.733817,-0.712448 -1.508473,-3.780296 -1.721457,-6.817438 l -0.387245,-5.522078 -7.564176,0.2315 -7.564177,0.231499 -0.255234,49.804346 c -0.185122,36.122974 0.05232,50.102964 0.864363,50.891364 0.917188,0.89048 10.031469,1.08699 50.41386,1.08699 40.382385,0 49.496665,-0.19651 50.413865,-1.08699 z M 38.521151,111.13977 c -6.253534,-1.96662 -8.17901,-8.914 -3.512616,-12.674004 5.575352,-4.49239 15.401467,-1.03192 15.401467,5.423954 0,4.90822 -6.578666,8.92002 -11.888851,7.25005 z m 7.627006,-2.26086 c 2.603272,-1.46922 3.784059,-5.31891 2.311468,-7.536 -2.800755,-4.216744 -8.785123,-4.967624 -12.935888,-1.623104 -6.309838,5.084204 3.246837,13.322824 10.62442,9.159104 z m 13.242367,-0.73529 c -0.65441,-0.63535 -1.035097,-2.83278 -0.864363,-4.98934 l 0.305111,-3.853934 22.290548,-0.21538 c 24.77802,-0.23941 24.76949,-0.24116 24.76949,5.100714 0,4.92538 -0.79891,5.09337 -24.222529,5.09337 -17.042231,0 -21.334077,-0.21874 -22.278257,-1.13543 z m 44.325906,-4.25306 -0.30196,-3.79191 H 81.618238 59.82201 l -0.317491,2.67045 c -0.603684,5.07767 -1.36059,4.91335 22.632277,4.91335 H 104.0184 Z M 35.187179,81.280756 c -2.179676,-1.38151 -2.610454,-2.29408 -2.610454,-5.53013 0,-3.23605 0.430778,-4.14862 2.610454,-5.53013 6.405217,-4.05969 15.222823,-0.85644 15.222823,5.53013 0,6.38657 -8.817606,9.58982 -15.222823,5.53013 z m 10.354989,-0.16702 c 4.384027,-2.71214 4.692509,-7.13826 0.706075,-10.13079 -4.665863,-3.50256 -12.680781,-0.48914 -12.680781,4.76768 0,4.77759 7.495067,8.1344 11.974706,5.36311 z m 14.464467,-0.76013 c -1.404652,-0.83141 -1.729024,-1.92898 -1.486107,-5.02858 l 0.310744,-3.96502 22.716719,-0.21494 c 24.894149,-0.23551 24.312969,-0.34561 24.312969,4.60556 0,5.23796 0.31236,5.16414 -22.966712,5.42772 -16.380351,0.18546 -21.492071,0.002 -22.887613,-0.82474 z m 43.407835,-4.60298 v -3.59232 H 81.618238 59.82201 l -0.317491,2.67045 c -0.609777,5.12892 -1.379337,4.96599 22.337749,4.7294 l 21.572202,-0.2152 z M 65.919988,23.199829 c -2.176319,-1.937692 -2.085386,-5.950604 0.172144,-7.596798 4.114947,-3.000627 10.077049,-0.6302 10.077049,4.006458 0,4.444757 -6.666613,6.780102 -10.249193,3.59034 z m 7.056535,-0.58113 c 2.980336,-1.682028 2.848173,-4.765658 -0.274924,-6.414507 -2.29442,-1.211348 -2.659267,-1.211348 -4.953688,0 -3.123096,1.648849 -3.25526,4.732479 -0.274924,6.414507 1.211057,0.68349 2.449352,1.24271 2.751768,1.24271 0.302416,0 1.540711,-0.55922 2.751768,-1.24271 z"
     id="path74"
     inkscape:connector-curvature="0" />
</svg>
